<svg width="200" height="200" viewBox="0 0 200 200" fill="none" xmlns="http://www.w3.org/2000/svg">
<rect width="200" height="200" rx="100" fill="white"/>
<path fill-rule="evenodd" clip-rule="evenodd" d="M120.313 52.7906C110.24 48.3026 98.9865 47.1907 88.2305 49.6209C77.4745 52.0511 67.7921 57.8931 60.6276 66.2757C53.463 74.6582 49.2 85.1322 48.4745 96.1354C47.7489 107.139 50.5997 118.082 56.6015 127.332C62.6033 136.583 71.4347 143.646 81.7785 147.467C92.1223 151.289 103.424 151.664 113.999 148.538C124.574 145.411 133.854 138.95 140.457 130.118C147.059 121.286 150.63 110.556 150.636 99.5293V94.3052C150.636 91.1673 153.18 88.6234 156.318 88.6234C159.456 88.6234 162 91.1673 162 94.3052V99.5325C161.992 113.01 157.628 126.127 149.558 136.922C141.489 147.717 130.146 155.614 117.221 159.435C104.296 163.257 90.4829 162.798 77.8404 158.127C65.198 153.456 54.4041 144.824 47.0685 133.517C39.7329 122.211 36.2487 108.836 37.1355 95.3877C38.0223 81.9393 43.2325 69.1378 51.9892 58.8925C60.7459 48.6471 72.5799 41.5069 85.7262 38.5367C98.8724 35.5665 112.627 36.9254 124.938 42.4108C127.804 43.6879 129.092 47.0469 127.815 49.9132C126.538 52.7795 123.179 54.0678 120.313 52.7906Z" fill="#DD4A14"/>
<path fill-rule="evenodd" clip-rule="evenodd" d="M160.334 50.0606C162.554 52.2784 162.555 55.8759 160.338 58.0959L103.519 114.971C102.454 116.037 101.009 116.637 99.5011 116.637C97.9937 116.637 96.548 116.039 95.4821 114.973L78.4366 97.9274C76.2177 95.7086 76.2177 92.111 78.4366 89.8921C80.6555 87.6733 84.253 87.6733 86.4719 89.8921L99.4977 102.918L152.298 50.0646C154.516 47.8446 158.114 47.8428 160.334 50.0606Z" fill="#DD4A14"/>
</svg>
