<svg width="9" height="9" viewBox="0 0 9 9" fill="none" xmlns="http://www.w3.org/2000/svg">
<path d="M5.23477 4.47523L8.87977 0.830228C8.96169 0.734578 9.00449 0.61154 8.99963 0.485702C8.99477 0.359864 8.9426 0.240494 8.85355 0.151447C8.76451 0.0623996 8.64514 0.0102331 8.5193 0.00537253C8.39346 0.000511953 8.27042 0.0433152 8.17477 0.125228L4.52977 3.77023L0.884772 0.120228C0.789121 0.0383151 0.666083 -0.00448768 0.540245 0.000372893C0.414407 0.00523347 0.295038 0.0573994 0.20599 0.146447C0.116943 0.235494 0.0647768 0.354863 0.0599162 0.480701C0.0550556 0.606539 0.0978589 0.729577 0.179772 0.825228L3.82477 4.47523L0.174772 8.12023C0.122431 8.16505 0.0799209 8.22021 0.0499093 8.28224C0.0198976 8.34428 0.00303234 8.41184 0.00037259 8.4807C-0.00228716 8.54956 0.00931581 8.61823 0.0344531 8.68239C0.0595904 8.74655 0.0977195 8.80483 0.146447 8.85355C0.195174 8.90228 0.253448 8.94041 0.31761 8.96555C0.381773 8.99068 0.450439 9.00229 0.519299 8.99963C0.588158 8.99697 0.655725 8.9801 0.717757 8.95009C0.779789 8.92008 0.834948 8.87757 0.879772 8.82523L4.52977 5.18023L8.17477 8.82523C8.27042 8.90714 8.39346 8.94994 8.5193 8.94508C8.64514 8.94022 8.76451 8.88806 8.85355 8.79901C8.9426 8.70996 8.99477 8.59059 8.99963 8.46476C9.00449 8.33892 8.96169 8.21588 8.87977 8.12023L5.23477 4.47523Z" fill="#DD4A14"/>
</svg>
