<svg width="1000" height="500" viewBox="0 0 1000 500" fill="none" xmlns="http://www.w3.org/2000/svg">
<g clip-path="url(#clip0)">
<rect width="1000" height="500" fill="white"/>
<g clip-path="url(#clip1)">
<circle cx="1" cy="25" r="1" fill="#DD4A14" fill-opacity="0.6"/>
<circle cx="112" cy="25" r="1" fill="#DD4A14" fill-opacity="0.6"/>
<circle cx="223" cy="25" r="1" fill="#DD4A14" fill-opacity="0.6"/>
<circle cx="334" cy="25" r="1" fill="#DD4A14" fill-opacity="0.6"/>
<circle cx="445" cy="25" r="1" fill="#DD4A14" fill-opacity="0.6"/>
<circle cx="556" cy="25" r="1" fill="#DD4A14" fill-opacity="0.6"/>
<circle cx="667" cy="25" r="1" fill="#DD4A14" fill-opacity="0.6"/>
<circle cx="778" cy="25" r="1" fill="#DD4A14" fill-opacity="0.6"/>
<circle cx="889" cy="25" r="1" fill="#DD4A14" fill-opacity="0.6"/>
<circle cx="1000" cy="25" r="1" fill="#DD4A14" fill-opacity="0.6"/>
</g>
<g clip-path="url(#clip2)">
<circle cx="55" cy="75" r="1" fill="#DD4A14"/>
<circle cx="166" cy="75" r="1" fill="#DD4A14"/>
<circle cx="277" cy="75" r="1" fill="#DD4A14"/>
<circle cx="388" cy="75" r="1" fill="#DD4A14"/>
<circle cx="499" cy="75" r="1" fill="#DD4A14"/>
<circle cx="610" cy="75" r="1" fill="#DD4A14"/>
<circle cx="721" cy="75" r="1" fill="#DD4A14"/>
<circle cx="832" cy="75" r="1" fill="#DD4A14"/>
<circle cx="943" cy="75" r="1" fill="#DD4A14"/>
</g>
<g clip-path="url(#clip3)">
<circle cx="1" cy="121" r="1" fill="#DD4A14" fill-opacity="0.6"/>
<circle cx="112" cy="121" r="1" fill="#DD4A14" fill-opacity="0.6"/>
<circle cx="223" cy="121" r="1" fill="#DD4A14" fill-opacity="0.6"/>
<circle cx="334" cy="121" r="1" fill="#DD4A14" fill-opacity="0.6"/>
<circle cx="445" cy="121" r="1" fill="#DD4A14" fill-opacity="0.6"/>
<circle cx="556" cy="121" r="1" fill="#DD4A14" fill-opacity="0.6"/>
<circle cx="667" cy="121" r="1" fill="#DD4A14" fill-opacity="0.6"/>
<circle cx="778" cy="121" r="1" fill="#DD4A14" fill-opacity="0.6"/>
<circle cx="889" cy="121" r="1" fill="#DD4A14" fill-opacity="0.6"/>
<circle cx="1000" cy="121" r="1" fill="#DD4A14" fill-opacity="0.6"/>
</g>
<g clip-path="url(#clip4)">
<circle cx="57" cy="171" r="1" fill="#DD4A14"/>
<circle cx="168" cy="171" r="1" fill="#DD4A14"/>
<circle cx="279" cy="171" r="1" fill="#DD4A14"/>
<circle cx="390" cy="171" r="1" fill="#DD4A14"/>
<circle cx="501" cy="171" r="1" fill="#DD4A14"/>
<circle cx="612" cy="171" r="1" fill="#DD4A14"/>
<circle cx="723" cy="171" r="1" fill="#DD4A14"/>
<circle cx="834" cy="171" r="1" fill="#DD4A14"/>
<circle cx="945" cy="171" r="1" fill="#DD4A14"/>
</g>
<g clip-path="url(#clip5)">
<circle cx="3" cy="221" r="1" fill="#DD4A14" fill-opacity="0.6"/>
<circle cx="114" cy="221" r="1" fill="#DD4A14" fill-opacity="0.6"/>
<circle cx="225" cy="221" r="1" fill="#DD4A14" fill-opacity="0.6"/>
<circle cx="336" cy="221" r="1" fill="#DD4A14" fill-opacity="0.6"/>
<circle cx="447" cy="221" r="1" fill="#DD4A14" fill-opacity="0.6"/>
<circle cx="558" cy="221" r="1" fill="#DD4A14" fill-opacity="0.6"/>
<circle cx="669" cy="221" r="1" fill="#DD4A14" fill-opacity="0.6"/>
<circle cx="780" cy="221" r="1" fill="#DD4A14" fill-opacity="0.6"/>
<circle cx="891" cy="221" r="1" fill="#DD4A14" fill-opacity="0.6"/>
</g>
<g clip-path="url(#clip6)">
<circle cx="57" cy="271" r="1" fill="#DD4A14"/>
<circle cx="168" cy="271" r="1" fill="#DD4A14"/>
<circle cx="279" cy="271" r="1" fill="#DD4A14"/>
<circle cx="390" cy="271" r="1" fill="#DD4A14"/>
<circle cx="501" cy="271" r="1" fill="#DD4A14"/>
<circle cx="612" cy="271" r="1" fill="#DD4A14"/>
<circle cx="723" cy="271" r="1" fill="#DD4A14"/>
<circle cx="834" cy="271" r="1" fill="#DD4A14"/>
<circle cx="945" cy="271" r="1" fill="#DD4A14"/>
</g>
<g clip-path="url(#clip7)">
<circle cx="3" cy="321" r="1" fill="#DD4A14" fill-opacity="0.6"/>
<circle cx="114" cy="321" r="1" fill="#DD4A14" fill-opacity="0.6"/>
<circle cx="225" cy="321" r="1" fill="#DD4A14" fill-opacity="0.6"/>
<circle cx="336" cy="321" r="1" fill="#DD4A14" fill-opacity="0.6"/>
<circle cx="447" cy="321" r="1" fill="#DD4A14" fill-opacity="0.6"/>
<circle cx="558" cy="321" r="1" fill="#DD4A14" fill-opacity="0.6"/>
<circle cx="669" cy="321" r="1" fill="#DD4A14" fill-opacity="0.6"/>
<circle cx="780" cy="321" r="1" fill="#DD4A14" fill-opacity="0.6"/>
<circle cx="891" cy="321" r="1" fill="#DD4A14" fill-opacity="0.6"/>
</g>
<g clip-path="url(#clip8)">
<circle cx="55" cy="371" r="1" fill="#DD4A14"/>
<circle cx="166" cy="371" r="1" fill="#DD4A14"/>
<circle cx="277" cy="371" r="1" fill="#DD4A14"/>
<circle cx="388" cy="371" r="1" fill="#DD4A14"/>
<circle cx="499" cy="371" r="1" fill="#DD4A14"/>
<circle cx="610" cy="371" r="1" fill="#DD4A14"/>
<circle cx="721" cy="371" r="1" fill="#DD4A14"/>
<circle cx="832" cy="371" r="1" fill="#DD4A14"/>
<circle cx="943" cy="371" r="1" fill="#DD4A14"/>
</g>
<g clip-path="url(#clip9)">
<circle cx="2" cy="422" r="1" fill="#DD4A14" fill-opacity="0.6"/>
<circle cx="113" cy="422" r="1" fill="#DD4A14" fill-opacity="0.6"/>
<circle cx="224" cy="422" r="1" fill="#DD4A14" fill-opacity="0.6"/>
<circle cx="335" cy="422" r="1" fill="#DD4A14" fill-opacity="0.6"/>
<circle cx="446" cy="422" r="1" fill="#DD4A14" fill-opacity="0.6"/>
<circle cx="557" cy="422" r="1" fill="#DD4A14" fill-opacity="0.6"/>
<circle cx="668" cy="422" r="1" fill="#DD4A14" fill-opacity="0.6"/>
<circle cx="779" cy="422" r="1" fill="#DD4A14" fill-opacity="0.6"/>
<circle cx="890" cy="422" r="1" fill="#DD4A14" fill-opacity="0.6"/>
</g>
<g clip-path="url(#clip10)">
<circle cx="56" cy="472" r="1" fill="#DD4A14"/>
<circle cx="167" cy="472" r="1" fill="#DD4A14"/>
<circle cx="278" cy="472" r="1" fill="#DD4A14"/>
<circle cx="389" cy="472" r="1" fill="#DD4A14"/>
<circle cx="500" cy="472" r="1" fill="#DD4A14"/>
<circle cx="611" cy="472" r="1" fill="#DD4A14"/>
<circle cx="722" cy="472" r="1" fill="#DD4A14"/>
<circle cx="833" cy="472" r="1" fill="#DD4A14"/>
<circle cx="944" cy="472" r="1" fill="#DD4A14"/>
</g>
</g>
<defs>
<clipPath id="clip0">
<rect width="1000" height="500" fill="white"/>
</clipPath>
<clipPath id="clip1">
<rect width="1000" height="50" fill="white"/>
</clipPath>
<clipPath id="clip2">
<rect width="1000" height="50" fill="white" transform="translate(-57 50)"/>
</clipPath>
<clipPath id="clip3">
<rect width="1000" height="50" fill="white" transform="translate(0 96)"/>
</clipPath>
<clipPath id="clip4">
<rect width="1000" height="50" fill="white" transform="translate(56 146)"/>
</clipPath>
<clipPath id="clip5">
<rect width="1000" height="50" fill="white" transform="translate(2 196)"/>
</clipPath>
<clipPath id="clip6">
<rect width="1000" height="50" fill="white" transform="translate(-55 246)"/>
</clipPath>
<clipPath id="clip7">
<rect width="1000" height="50" fill="white" transform="translate(2 296)"/>
</clipPath>
<clipPath id="clip8">
<rect width="1000" height="50" fill="white" transform="translate(54 346)"/>
</clipPath>
<clipPath id="clip9">
<rect width="1000" height="50" fill="white" transform="translate(1 397)"/>
</clipPath>
<clipPath id="clip10">
<rect width="1000" height="50" fill="white" transform="translate(-56 447)"/>
</clipPath>
</defs>
</svg>
