<svg width="11" height="11" viewBox="0 0 11 11" fill="none" xmlns="http://www.w3.org/2000/svg">
<path d="M1.3215 3.78751e-07C1.14805 -0.000130987 0.976268 0.0339112 0.815975 0.100182C0.655682 0.166454 0.510015 0.263656 0.387296 0.386235C0.264577 0.508815 0.167209 0.654371 0.100756 0.814589C0.0343029 0.974807 6.56271e-05 1.14655 0 1.32C0 2.05 0.5915 2.655 1.32 2.655C2.0495 2.655 2.6415 2.05 2.6415 1.321C2.64163 1.14757 2.60759 0.975816 2.54131 0.815551C2.47503 0.655286 2.37782 0.509652 2.25523 0.386973C2.13265 0.264294 1.98709 0.166974 1.82687 0.100575C1.66666 0.0341761 1.49493 3.28984e-07 1.3215 3.78751e-07V3.78751e-07ZM7.7675 3.5C6.658 3.5 6.0235 4.08 5.7185 4.657H5.6865V3.6555H3.5V11H5.7785V7.3645C5.7785 6.4065 5.8505 5.4805 7.036 5.4805C8.2045 5.4805 8.2215 6.573 8.2215 7.425V11H10.5V6.966C10.5 4.992 10.0755 3.5 7.7675 3.5ZM0.1815 3.655V11H2.4615V3.655H0.1815V3.655Z" fill="#FFFFFF"/>
</svg>
