<svg width="200" height="200" viewBox="0 0 200 200" fill="none" xmlns="http://www.w3.org/2000/svg">
<path d="M170 0H30C22.0435 0 14.4129 3.1607 8.7868 8.7868C3.1607 14.4129 0 22.0435 0 30V170C0 177.956 3.1607 185.587 8.7868 191.213C14.4129 196.839 22.0435 200 30 200H170C177.956 200 185.587 196.839 191.213 191.213C196.839 185.587 200 177.956 200 170V30C200 22.0435 196.839 14.4129 191.213 8.7868C185.587 3.1607 177.956 0 170 0V0ZM41.08 161.08C39.4463 162.718 37.2953 163.739 34.9934 163.968C32.6915 164.198 30.3812 163.623 28.4559 162.34C26.5307 161.058 25.1096 159.147 24.4349 156.935C23.7601 154.722 23.8734 152.344 24.7554 150.205C25.6374 148.067 27.2336 146.3 29.272 145.206C31.3105 144.112 33.6651 143.759 35.9347 144.207C38.2043 144.654 40.2486 145.875 41.7192 147.661C43.1898 149.446 43.9959 151.687 44 154C44.0023 155.314 43.7457 156.616 43.2446 157.831C42.7436 159.045 42.008 160.15 41.08 161.08V161.08ZM74.83 164H66.75C66.4537 163.999 66.1619 163.927 65.8996 163.789C65.6372 163.651 65.412 163.452 65.2431 163.209C65.0743 162.965 64.9667 162.684 64.9296 162.39C64.8925 162.096 64.9269 161.798 65.03 161.52L107.16 45.68C108.193 42.8483 110.071 40.4019 112.538 38.6709C115.006 36.9399 117.946 36.0076 120.96 36H129.04C129.336 36.0008 129.628 36.0732 129.89 36.211C130.153 36.3488 130.378 36.5479 130.547 36.7914C130.716 37.0349 130.823 37.3156 130.86 37.6096C130.898 37.9036 130.863 38.2022 130.76 38.48L88.6 154.32C87.5684 157.147 85.6956 159.59 83.2338 161.321C80.772 163.051 77.8392 163.986 74.83 164V164ZM173.52 38L130.44 156.28C129.621 158.54 128.126 160.494 126.158 161.875C124.19 163.256 121.844 163.998 119.44 164H108.76C108.518 164.007 108.278 163.954 108.061 163.846C107.845 163.737 107.659 163.576 107.52 163.378C107.381 163.18 107.294 162.95 107.266 162.709C107.238 162.469 107.27 162.225 107.36 162L149.72 45.68C150.753 42.8483 152.631 40.4019 155.098 38.6709C157.566 36.9399 160.506 36.0076 163.52 36H172.12C172.36 36 172.596 36.0578 172.808 36.1684C173.021 36.279 173.203 36.4393 173.341 36.6355C173.478 36.8318 173.566 37.0583 173.597 37.2958C173.629 37.5333 173.602 37.7749 173.52 38V38Z" fill="#DD4A13"/>
<path d="M130.786 38.5146L88.6262 154.355C87.5945 157.181 85.7218 159.625 83.26 161.355C80.7982 163.086 77.8654 164.021 74.8562 164.035H66.7762C66.4798 164.034 66.1881 163.961 65.9257 163.824C65.6634 163.686 65.4382 163.487 65.2693 163.243C65.1004 163 64.9929 162.719 64.9558 162.425C64.9187 162.131 64.9531 161.832 65.0562 161.555L107.186 45.7146C108.22 42.8829 110.097 40.4365 112.565 38.7055C115.032 36.9745 117.972 36.0422 120.986 36.0346H129.066C129.363 36.0354 129.654 36.1078 129.917 36.2456C130.179 36.3834 130.404 36.5825 130.573 36.826C130.742 37.0695 130.849 37.3502 130.887 37.6442C130.924 37.9382 130.889 38.2368 130.786 38.5146Z" fill="white"/>
<path d="M173.539 37.9863L130.459 156.266C129.64 158.527 128.145 160.48 126.177 161.861C124.209 163.243 121.863 163.984 119.459 163.986H108.779C108.537 163.994 108.297 163.941 108.081 163.832C107.864 163.723 107.678 163.563 107.539 163.364C107.4 163.166 107.313 162.936 107.285 162.696C107.257 162.455 107.289 162.211 107.379 161.986L149.739 45.6663C150.772 42.8347 152.65 40.3882 155.118 38.6572C157.585 36.9262 160.525 35.994 163.539 35.9863H172.139C172.379 35.9863 172.615 36.0441 172.827 36.1547C173.04 36.2654 173.222 36.4256 173.36 36.6219C173.497 36.8181 173.585 37.0446 173.616 37.2822C173.648 37.5197 173.621 37.7612 173.539 37.9863V37.9863Z" fill="white"/>
<path d="M44.007 153.996C44.0029 156.309 43.1969 158.549 41.7262 160.335C40.2556 162.121 38.2113 163.341 35.9417 163.789C33.6721 164.236 31.3175 163.883 29.2791 162.79C27.2406 161.696 25.6444 159.929 24.7624 157.791C23.8804 155.652 23.7671 153.274 24.4419 151.061C25.1166 148.848 26.5377 146.938 28.4629 145.655C30.3882 144.373 32.6985 143.797 35.0004 144.027C37.3023 144.257 39.4533 145.278 41.087 146.916C42.0151 147.846 42.7506 148.95 43.2517 150.165C43.7527 151.38 44.0094 152.682 44.007 153.996Z" fill="white"/>
</svg>
