<svg xmlns="http://www.w3.org/2000/svg" viewBox="0 0 333.43 70">
  <defs>
    <style>
      .cls-1 {
        fill: #dc4914;
      }

      .cls-2 {
        fill: #fff;
      }
    </style>
  </defs>
  <g id="Layer_2" data-name="Layer 2">
    <g id="Layer_1-2" data-name="Layer 1">
      <g>
        <g>
          <path class="cls-1" d="M59.5,0h-49A10.5,10.5,0,0,0,0,10.5v49A10.5,10.5,0,0,0,10.5,70h49A10.5,10.5,0,0,0,70,59.5v-49A10.5,10.5,0,0,0,59.5,0ZM14.38,56.38a3.52,3.52,0,1,1,1-2.48A3.5,3.5,0,0,1,14.38,56.38Zm11.8,1H23.35a.65.65,0,0,1-.6-.87L37.51,16a5.15,5.15,0,0,1,4.83-3.39h2.82a.65.65,0,0,1,.61.87L31,54A5.15,5.15,0,0,1,26.18,57.4ZM60.73,13.29,45.65,54.7a4.09,4.09,0,0,1-3.86,2.7H38.07a.51.51,0,0,1-.49-.69L52.4,16a5.16,5.16,0,0,1,4.83-3.39h3A.52.52,0,0,1,60.73,13.29Z"/>
          <g>
            <g>
              <path class="cls-2" d="M45.77,13.47,31,54a5.15,5.15,0,0,1-4.83,3.39H23.35a.65.65,0,0,1-.6-.87L37.51,16a5.15,5.15,0,0,1,4.83-3.39h2.82A.65.65,0,0,1,45.77,13.47Z"/>
              <path class="cls-2" d="M60.73,13.29,45.65,54.7a4.09,4.09,0,0,1-3.86,2.7H38.07a.51.51,0,0,1-.49-.69L52.4,16a5.16,5.16,0,0,1,4.83-3.39h3A.52.52,0,0,1,60.73,13.29Z"/>
            </g>
            <path class="cls-2" d="M15.4,53.9a3.48,3.48,0,1,1-1-2.48A3.5,3.5,0,0,1,15.4,53.9Z"/>
          </g>
        </g>
        <g>
          <path class="cls-1" d="M91.56,31.74V44.56a2.42,2.42,0,0,0,.61,1.86,3,3,0,0,0,2.08.57h2.94v4H93.41a7.28,7.28,0,0,1-5-1.51Q86.73,48,86.73,44.56V31.74H84v-3.9h2.73V22.08h4.83v5.76h5.63v3.9Z"/>
          <path class="cls-1" d="M118.29,28.59A8.08,8.08,0,0,1,121.57,32a11.15,11.15,0,0,1,1.2,5.37V51H118V38a6.72,6.72,0,0,0-1.55-4.76,6.28,6.28,0,0,0-8.51,0A6.63,6.63,0,0,0,106.39,38V51H101.6V19.9h4.79V30.53a8,8,0,0,1,3.08-2.27,10.37,10.37,0,0,1,4.1-.8A9.75,9.75,0,0,1,118.29,28.59Z"/>
          <path class="cls-1" d="M149.9,41.19H132.22a6.44,6.44,0,0,0,2.05,4.46,6.52,6.52,0,0,0,4.54,1.68,5.59,5.59,0,0,0,5.46-3.24h5.17a10.45,10.45,0,0,1-3.8,5.23,11.16,11.16,0,0,1-6.83,2,11.85,11.85,0,0,1-5.94-1.49,10.67,10.67,0,0,1-4.12-4.2,12.87,12.87,0,0,1-1.49-6.28,13.08,13.08,0,0,1,1.45-6.28,10.18,10.18,0,0,1,4.07-4.18,12.13,12.13,0,0,1,6-1.47,11.83,11.83,0,0,1,5.84,1.43,10.06,10.06,0,0,1,4,4,12.09,12.09,0,0,1,1.43,5.94A15.06,15.06,0,0,1,149.9,41.19Zm-4.83-3.86a5.46,5.46,0,0,0-1.89-4.24,6.73,6.73,0,0,0-4.58-1.6,6.14,6.14,0,0,0-4.24,1.58,6.54,6.54,0,0,0-2.1,4.26Z"/>
          <path class="cls-1" d="M154.62,33.13a10.56,10.56,0,0,1,9.51-5.67,10.83,10.83,0,0,1,4.48,1,9.1,9.1,0,0,1,3.5,2.62V19.9h4.83V51h-4.83V47.49a8.91,8.91,0,0,1-3.25,2.78,10.22,10.22,0,0,1-4.77,1.09,10.36,10.36,0,0,1-5.52-1.53,10.85,10.85,0,0,1-3.95-4.29,13.22,13.22,0,0,1-1.45-6.23A12.88,12.88,0,0,1,154.62,33.13Zm16.51,2.1a7,7,0,0,0-2.59-2.69,6.79,6.79,0,0,0-3.44-.92,6.79,6.79,0,0,0-6,3.55,8.23,8.23,0,0,0-1,4.14,8.63,8.63,0,0,0,1,4.2,7,7,0,0,0,2.61,2.75,6.68,6.68,0,0,0,3.42.94,6.79,6.79,0,0,0,3.44-.92,6.91,6.91,0,0,0,2.59-2.71,8.61,8.61,0,0,0,1-4.18A8.47,8.47,0,0,0,171.13,35.23Z"/>
          <path class="cls-1" d="M204.29,41.19H186.6a6.39,6.39,0,0,0,6.6,6.14,5.61,5.61,0,0,0,5.46-3.24h5.16a10.39,10.39,0,0,1-3.8,5.23,11.13,11.13,0,0,1-6.82,2,11.83,11.83,0,0,1-5.94-1.49,10.67,10.67,0,0,1-4.12-4.2,12.76,12.76,0,0,1-1.49-6.28,13.08,13.08,0,0,1,1.45-6.28,10.12,10.12,0,0,1,4.07-4.18,12.13,12.13,0,0,1,6-1.47A11.83,11.83,0,0,1,199,28.89a10.19,10.19,0,0,1,4,4,12.08,12.08,0,0,1,1.42,5.94A15.14,15.14,0,0,1,204.29,41.19Zm-4.83-3.86a5.46,5.46,0,0,0-1.89-4.24,6.75,6.75,0,0,0-4.58-1.6,6.14,6.14,0,0,0-4.24,1.58,6.54,6.54,0,0,0-2.1,4.26Z"/>
          <path class="cls-1" d="M218.1,46.7l6.56-18.86h5.08L220.92,51h-5.71l-8.78-23.14h5.12Z"/>
          <path class="cls-1" d="M241.48,28.53a10.37,10.37,0,0,1,4.72-1.07,10.69,10.69,0,0,1,5.55,1.47,10.3,10.3,0,0,1,3.9,4.18,13.12,13.12,0,0,1,1.43,6.2,13.33,13.33,0,0,1-1.43,6.23,10.71,10.71,0,0,1-3.92,4.29,11,11,0,0,1-10.29.48,9.15,9.15,0,0,1-3.3-2.69V51h-4.79V19.9h4.79V31.28A9.08,9.08,0,0,1,241.48,28.53Zm9.74,6.64a6.83,6.83,0,0,0-2.6-2.65,7,7,0,0,0-3.47-.9,6.83,6.83,0,0,0-6,3.61,8.37,8.37,0,0,0-1,4.16,8.5,8.5,0,0,0,1,4.18,6.83,6.83,0,0,0,9.49,2.69,7,7,0,0,0,2.6-2.75,8.63,8.63,0,0,0,1-4.2A8.24,8.24,0,0,0,251.22,35.17Z"/>
          <path class="cls-1" d="M282.78,27.84V51H278V48.25a7.86,7.86,0,0,1-3,2.25,9.44,9.44,0,0,1-3.88.82,10.32,10.32,0,0,1-4.89-1.14,8,8,0,0,1-3.4-3.36,10.82,10.82,0,0,1-1.24-5.37V27.84h4.74V40.73a6.7,6.7,0,0,0,1.56,4.77,5.51,5.51,0,0,0,4.24,1.66,5.58,5.58,0,0,0,4.26-1.66A6.66,6.66,0,0,0,278,40.73V27.84Z"/>
          <path class="cls-1" d="M289.34,23.89a3.07,3.07,0,0,1,2.18-5.25,2.91,2.91,0,0,1,2.14.88,3.15,3.15,0,0,1,0,4.37,3.09,3.09,0,0,1-4.32,0Zm4.53,3.95V51h-4.79V27.84Z"/>
          <path class="cls-1" d="M305,19.9V51h-4.79V19.9Z"/>
          <path class="cls-1" d="M311.11,33.13a10.56,10.56,0,0,1,9.51-5.67,10.83,10.83,0,0,1,4.48,1,9.1,9.1,0,0,1,3.5,2.62V19.9h4.83V51H328.6V47.49a8.91,8.91,0,0,1-3.25,2.78,10.22,10.22,0,0,1-4.77,1.09,10.36,10.36,0,0,1-5.52-1.53,10.85,10.85,0,0,1-3.95-4.29,13.22,13.22,0,0,1-1.45-6.23A12.88,12.88,0,0,1,311.11,33.13Zm16.51,2.1A7,7,0,0,0,325,32.54a6.79,6.79,0,0,0-3.44-.92,6.79,6.79,0,0,0-6,3.55,8.23,8.23,0,0,0-1,4.14,8.63,8.63,0,0,0,1,4.2,7,7,0,0,0,2.61,2.75,6.68,6.68,0,0,0,3.42.94,6.79,6.79,0,0,0,3.44-.92,6.91,6.91,0,0,0,2.59-2.71,8.61,8.61,0,0,0,1-4.18A8.47,8.47,0,0,0,327.62,35.23Z"/>
        </g>
      </g>
    </g>
  </g>
</svg>
