<svg width="13" height="9" viewBox="0 0 13 9" fill="none" xmlns="http://www.w3.org/2000/svg">
<path d="M12.857 8.36035C12.857 8.71392 12.5703 8.99999 12.2174 8.99999H7.06811C6.89847 8.99999 6.73577 8.9326 6.61581 8.81264C6.49586 8.69268 6.42847 8.52999 6.42847 8.36035C6.42847 8.1907 6.49586 8.02801 6.61581 7.90805C6.73577 7.78809 6.89847 7.7207 7.06811 7.7207H12.2174C12.571 7.7207 12.857 8.00677 12.857 8.36035V8.36035Z" fill="#DD4A14"/>
<path d="M12.8571 4.49999C12.8571 4.85357 12.5704 5.13964 12.2175 5.13964H0.639643C0.469999 5.13964 0.307303 5.07225 0.187347 4.95229C0.0673908 4.83233 0 4.66964 0 4.49999C0 4.33035 0.0673908 4.16765 0.187347 4.0477C0.307303 3.92774 0.469999 3.86035 0.639643 3.86035H12.2175C12.5711 3.86035 12.8571 4.14707 12.8571 4.49999V4.49999Z" fill="#DD4A14"/>
<path d="M12.2175 1.27929C12.3872 1.27929 12.5499 1.21189 12.6698 1.09194C12.7898 0.971982 12.8572 0.809287 12.8572 0.639643C12.8572 0.469999 12.7898 0.307303 12.6698 0.187347C12.5499 0.0673906 12.3872 5.05578e-09 12.2175 0H4.49682C4.41282 -2.50337e-09 4.32965 0.0165448 4.25204 0.0486899C4.17443 0.080835 4.10392 0.127951 4.04452 0.187347C3.98513 0.246743 3.93801 0.317257 3.90587 0.394862C3.87372 0.472467 3.85718 0.555644 3.85718 0.639643C3.85718 0.723642 3.87372 0.806819 3.90587 0.884424C3.93801 0.962029 3.98513 1.03254 4.04452 1.09194C4.10392 1.15133 4.17443 1.19845 4.25204 1.2306C4.32965 1.26274 4.41282 1.27929 4.49682 1.27929H12.2175Z" fill="#DD4A14"/>
</svg>
